<?xml version="1.0" encoding="UTF-8"?>
<!DOCTYPE svg PUBLIC "-//W3C//DTD SVG 1.1//EN" "http://www.w3.org/Graphics/SVG/1.1/DTD/svg11.dtd">
<!-- Creator: CorelDRAW -->
<svg xmlns="http://www.w3.org/2000/svg" xml:space="preserve" width="2048px" height="2048px" style="shape-rendering:geometricPrecision; text-rendering:geometricPrecision; image-rendering:optimizeQuality; fill-rule:evenodd; clip-rule:evenodd"
viewBox="0 0 2048 2048"
 xmlns:xlink="http://www.w3.org/1999/xlink">
 <defs>
  <style type="text/css">
   <![CDATA[
    .fil6 {fill:none}
    .fil5 {fill:#4C4C4C}
    .fil2 {fill:#565656}
    .fil4 {fill:#626263;fill-rule:nonzero}
    .fil1 {fill:#6A6A6A;fill-rule:nonzero}
    .fil3 {fill:#ADADAE;fill-rule:nonzero}
    .fil0 {fill:#BEBEBE;fill-rule:nonzero}
   ]]>
  </style>
 </defs>
 <g id="Layer_x0020_1">
  <metadata id="CorelCorpID_0Corel-Layer"/>
  <g id="_459774248">
   <g>
    <path id="_459775184" class="fil0" d="M1169.59 486.646l91.3772 -135.469c25.3937,-37.6512 60.8894,-64.7882 100.595,-80.2536 40.7032,-15.8563 85.7623,-19.3347 128.782,-9.19843l43.3276 10.2106 -24.8457 36.8339 -115.416 171.115 52.4693 129.563 140.359 0.546851 115.442 -171.147 24.8351 -36.8174 25.689 36.3366c25.5166,36.0922 39.1725,79.2048 39.7205,122.943 0.531496,42.5599 -11.3256,85.5981 -36.7111,123.235l-91.3772 135.474c-33.2823,49.343 -83.7461,80.5914 -138.236,91.1847 -48.2469,9.37678 -99.6816,2.49567 -145.132,-22.4232l-478.197 478.197c10.2721,28.5461 14.5429,59.0138 12.3886,89.2654 -2.60079,36.5067 -14.4461,72.7784 -36.2528,105.11l-91.3784 135.47c-25.3937,37.6512 -60.8882,64.7859 -100.595,80.2524 -40.7044,15.8563 -85.7623,19.3347 -128.782,9.19843l-43.3276 -10.2106 24.8457 -36.8339 115.416 -171.115 -52.4693 -129.563 -140.36 -0.549213 -115.44 171.15 -24.8339 36.8185 -25.6902 -36.3378c-25.5177,-36.0922 -39.1725,-79.206 -39.7205,-122.943 -0.532678,-42.5622 11.3244,-85.5993 36.7099,-123.236l91.3808 -135.473 0.00472441 -0.00590552c33.2811,-49.3418 83.7438,-80.5867 138.23,-91.1788 48.2457,-9.37678 99.6792,-2.49685 145.129,22.4209l478.198 -478.197c-10.2721,-28.5473 -14.5417,-59.0138 -12.3874,-89.2654 2.60079,-36.5055 14.4449,-72.776 36.2516,-105.109z"/>
    <polygon id="_459775064" class="fil1" points="1379.68,889.567 902.277,1366.97 667.59,1159.16 1145.42,681.33 "/>
    <rect id="_459774848" class="fil2" transform="matrix(-0.678875 -0.678875 0.678875 -0.678875 914.38 1267.06)" width="196.875" height="518.75" rx="46.1008" ry="46.1008"/>
   </g>
   <g>
    <path id="_459774728" class="fil3" d="M1434.75 581.971l11.1272 27.4772 140.359 0.546851 115.442 -171.147 24.8351 -36.8174 25.689 36.3366c25.5166,36.0922 39.1725,79.2048 39.7205,122.943 0.531496,42.5599 -11.3256,85.5981 -36.7111,123.235l-91.3772 135.474c-33.2823,49.343 -83.7461,80.5914 -138.236,91.1847 -48.2469,9.37678 -99.6816,2.49567 -145.132,-22.4232l-478.197 478.197c10.2721,28.5461 14.5429,59.0138 12.3886,89.2654 -2.60079,36.5067 -14.4461,72.7784 -36.2528,105.11l-91.3784 135.47c-25.3937,37.6512 -60.8882,64.7859 -100.595,80.2524 -40.7044,15.8563 -85.7623,19.3347 -128.782,9.19843l-43.3276 -10.2106 24.8457 -36.8339 115.416 -171.115 -37.8437 -93.4465 818.009 -892.698z"/>
    <polygon id="_459774608" class="fil4" points="1379.68,889.567 902.277,1366.97 799.127,1275.63 1254.7,778.468 "/>
    <path id="_459774416" class="fil5" d="M881.781 1234.46l-23.4437 -23.4449 336.79 -367.543 38.8205 38.8205c17.9291,17.9303 17.9291,47.2678 0,65.1969l-286.97 286.97c-17.9291,17.9291 -47.2666,17.9291 -65.1969,0z"/>
   </g>
  </g>
  <rect class="fil6" width="2048" height="2048"/>
 </g>
</svg>
