<?xml version="1.0" encoding="UTF-8"?>
<!DOCTYPE svg PUBLIC "-//W3C//DTD SVG 1.1//EN" "http://www.w3.org/Graphics/SVG/1.1/DTD/svg11.dtd">
<!-- Creator: CorelDRAW -->
<svg xmlns="http://www.w3.org/2000/svg" xml:space="preserve" width="2048px" height="2048px" style="shape-rendering:geometricPrecision; text-rendering:geometricPrecision; image-rendering:optimizeQuality; fill-rule:evenodd; clip-rule:evenodd"
viewBox="0 0 2048 2048"
 xmlns:xlink="http://www.w3.org/1999/xlink">
 <defs>
  <style type="text/css">
   <![CDATA[
    .fil8 {fill:none}
    .fil3 {fill:#5A5A5A}
    .fil1 {fill:#6C6C6C}
    .fil2 {fill:#393939;fill-rule:nonzero}
    .fil0 {fill:#3F3F3F;fill-rule:nonzero}
    .fil7 {fill:#616161;fill-rule:nonzero}
    .fil5 {fill:#686868;fill-rule:nonzero}
    .fil6 {fill:#6D6D6D;fill-rule:nonzero}
    .fil4 {fill:#757575;fill-rule:nonzero}
   ]]>
  </style>
 </defs>
 <g id="Layer_x0020_1">
  <metadata id="CorelCorpID_0Corel-Layer"/>
  <g id="_461651072">
   <g>
    <path id="_461645096" class="fil0" d="M530.908 1079.93l944.174 0c19.3016,0 36.8292,-5.45433 49.5189,-14.2417 12.6898,-8.78741 20.5654,-20.9256 20.5654,-34.291l0 -16.9866c0,-13.3654 -7.8756,-25.5036 -20.5654,-34.2886 -12.6898,-8.78741 -30.2173,-14.2417 -49.5189,-14.2417l-944.174 0 -26.2819 0 0 18.1996 0 77.6505 0 18.1996 26.2819 0z"/>
    <path id="_461646488" class="fil1" d="M1147.03 1136l546.852 0c53.9658,0 98.119,-50.8902 98.119,-113.092l0 -0.0011811c0,-62.2016 -44.1532,-113.092 -98.119,-113.092l-550.53 0c-17.2748,32.5583 -48.417,54.4052 -83.7745,54.4052l-63.006 0 0 117.374 66.6827 0c35.3575,0 66.5008,21.8469 83.7757,54.4052z"/>
    <path id="_461666960" class="fil2" d="M670.929 1079.93l804.153 0c19.3016,0 36.8292,-5.45433 49.5189,-14.2417 12.6898,-8.78741 20.5654,-20.9256 20.5654,-34.2898l0 -8.61497 -1040.54 0 0 38.9469 0 18.1996 166.303 0z"/>
    <path id="_461665544" class="fil3" d="M1147.03 1136l546.852 0c53.9658,0 98.119,-50.8902 98.119,-113.092l0 -0.0011811 -0.0011811 -0.120473 -795.428 0 0 58.8083 66.6827 0c35.3575,0 66.5008,21.8469 83.7757,54.4052z"/>
   </g>
   <g>
    <path id="_461662976" class="fil4" d="M301.35 1252.49l7.27914 0 0 -53.517 -7.27914 0c-12.4949,0 -23.8382,-5.09528 -32.0457,-13.3028l0.046063 -0.046063c-8.23701,-8.25827 -13.3488,-19.5874 -13.3488,-31.9996l0 -228.31c0,-33.6603 7.56733,-69.6095 21.1689,-104.676 13.6146,-35.1059 33.3296,-69.3686 57.5599,-99.5115 25.6689,-31.9311 56.5063,-59.4284 90.6922,-78.6981 32.0209,-18.0484 67.1067,-28.9229 103.871,-29.6055 14.8914,-0.277559 32.4012,-0.197244 47.7615,4.33937 11.2701,3.32835 21.0709,8.56064 28.0677,16.6288 6.29056,7.25434 10.3158,16.8036 11.1059,29.3268 2.88898,45.8433 -44.4874,59.9847 -73.4729,68.6351 -2.49803,0.746457 -4.82126,1.43976 -6.13111,1.85197 -29.1508,9.16654 -48.6461,17.4225 -60.2469,27.411 -9.23859,7.95827 -13.6335,18.2776 -14.7721,33.1961 -1.82599,23.9492 13.1421,54.267 25.2414,78.7749 10.0158,20.289 18.4937,37.4587 18.4937,52.3276l0 228.31c0,12.4949 -5.09646,23.8394 -13.3028,32.0457 -8.20749,8.20749 -19.5508,13.3028 -32.0457,13.3028l-4.95118 0 0 53.517 4.95118 0c12.3886,0 23.6965,5.09292 31.9524,13.3039l0 -0.0011811 0.0472441 0.046063 0.046063 0.046063 -0.0011811 0.0011811c8.21103,8.25591 13.3039,19.5662 13.3039,31.9524l0 92.0847c0,12.4937 -5.09646,23.837 -13.3028,32.0445 -8.20749,8.20631 -19.552,13.3039 -32.0457,13.3039l-158.642 0c-12.4937,0 -23.8382,-5.09646 -32.0457,-13.3028 -8.20631,-8.20749 -13.3028,-19.5508 -13.3028,-32.0457l0 -92.0847c0,-12.4323 5.09646,-23.7461 13.3016,-31.9547l0.0933072 -0.0921261c8.20749,-8.20631 19.5201,-13.3016 31.9536,-13.3016z"/>
    <path id="_461668472" class="fil5" d="M308.629 1251.54l0 -52.5662 -7.27914 0c-1.97362,0 -3.9189,-0.127559 -5.82638,-0.37441l170.296 0c-1.90866,0.246851 -3.85394,0.37441 -5.82756,0.37441l-4.95118 0 0 52.5662 -146.412 0z"/>
   </g>
   <g>
    <path id="_461661464" class="fil6" d="M301.35 1252.49l7.27914 0 0 -53.517 -7.27914 0c-12.4949,0 -23.8382,-5.09528 -32.0457,-13.3028l0.046063 -0.046063c-8.23701,-8.25827 -13.3488,-19.5874 -13.3488,-31.9996l0 -228.31c0,-33.6603 7.56733,-69.6095 21.1689,-104.676 13.6146,-35.1059 33.3296,-69.3686 57.5599,-99.5115 13.8591,-17.2406 29.2252,-33.1866 45.8115,-47.2453l0 761.39 -79.1918 0c-12.4937,0 -23.8382,-5.09646 -32.0457,-13.3028 -8.20631,-8.20749 -13.3028,-19.5508 -13.3028,-32.0457l0 -92.0847c0,-12.4323 5.09646,-23.7461 13.3016,-31.9547l0.0933072 -0.0921261c8.20749,-8.20631 19.5201,-13.3016 31.9536,-13.3016z"/>
    <path id="_461645528" class="fil7" d="M308.629 1251.54l0 -52.5662 -7.27914 0c-1.97362,0 -3.9189,-0.127559 -5.82638,-0.37441l85.0182 0 0 52.9406 -71.9127 0z"/>
   </g>
   <g>
    <path id="_461664992" class="fil0" d="M530.908 1079.93l944.174 0c19.3016,0 36.8292,-5.45433 49.5189,-14.2417 12.6898,-8.78741 20.5654,-20.9256 20.5654,-34.291l0 -16.9866c0,-13.3654 -7.8756,-25.5036 -20.5654,-34.2886 -12.6898,-8.78741 -30.2173,-14.2417 -49.5189,-14.2417l-944.174 0 -26.2819 0 0 18.1996 0 77.6505 0 18.1996 26.2819 0z"/>
    <path id="_461661128" class="fil1" d="M1147.03 1136l546.852 0c53.9658,0 98.119,-50.8902 98.119,-113.092l0 -0.0011811c0,-62.2016 -44.1532,-113.092 -98.119,-113.092l-550.53 0c-17.2748,32.5583 -48.417,54.4052 -83.7745,54.4052l-63.006 0 0 117.374 66.6827 0c35.3575,0 66.5008,21.8469 83.7757,54.4052z"/>
    <path id="_461655056" class="fil2" d="M670.929 1079.93l804.153 0c19.3016,0 36.8292,-5.45433 49.5189,-14.2417 12.6898,-8.78741 20.5654,-20.9256 20.5654,-34.2898l0 -8.61497 -1040.54 0 0 38.9469 0 18.1996 166.303 0z"/>
    <path id="_461649152" class="fil3" d="M1147.03 1136l546.852 0c53.9658,0 98.119,-50.8902 98.119,-113.092l0 -0.0011811 -0.0011811 -0.120473 -795.428 0 0 58.8083 66.6827 0c35.3575,0 66.5008,21.8469 83.7757,54.4052z"/>
   </g>
  </g>
  <rect class="fil8" width="2048" height="2048"/>
 </g>
</svg>
