<?xml version="1.0" encoding="utf-8"?>
<!-- Generator: Adobe Illustrator 26.2.1, SVG Export Plug-In . SVG Version: 6.00 Build 0)  -->
<svg version="1.1" id="Layer_1" xmlns="http://www.w3.org/2000/svg" xmlns:xlink="http://www.w3.org/1999/xlink" x="0px" y="0px"
	 viewBox="0 0 720 806.66" style="enable-background:new 0 0 720 806.66;" xml:space="preserve">
<style type="text/css">
	.st0{clip-path:url(#SVGID_00000179629606501773942460000011483858220462893989_);}
	.st1{fill:#FFFFFF;stroke:#000000;stroke-width:9.5705;stroke-miterlimit:10;}
	.st2{fill:#FFFFFF;stroke:#000000;stroke-width:13.9208;stroke-miterlimit:10;}
	.st3{fill:#FFFFFF;stroke:#000000;stroke-width:10.4406;stroke-miterlimit:10;}
</style>
<g>
	<path fill="#FFFFFF" d="M720,548.86c-7.91,1.44-21.33,8.31-25.4,7.76c-32.93-4.47-43.55,22.85-46.25,21.63c-8.82-4.17-23.87-9-62.33,3.72
		c-2.65,0.88-5.55,1.52-8.19-0.36c-11.33-7.43-45.92-24.76-52.53-28.19c-6.46-3.35-18.21-14.2-29.58-20.47
		c-8.2-4.53-17.76-5.91-26.91-3.91l-71.01,15.53c0,5.72-15.02,4.54-18.82,9.47c-3.45,2.7-20.97-2.13-39.09,8.18
		c-2.84,1.61-5,3.66-6.82,6.31c-4.71,6.83-10.41,12.51-18.34,15.57c-6.4,2.82-7.72,11.86-16.03,11.26
		c-11.07,0.9-23.41,2.13-33.88,6.27c-4.2,2.01-8.17,5.56-12.76,6.13c-10.85-0.27-20.63,8.69-31.86,7.21
		c-11.34-2.58-57.2-3.4-84.15-16.82c-7.45-3.71-14.91-8.03-23.25-9.41c-16.99-1.29-33.46,9.41-46.45,19.31
		c-8.04,7.54-12.09,19.27-21.1,25.62c-4.63,3.26-4.65,4.01-7.8-0.94c-6.1-12.35-26.2,18.72-31.32,23.38
		c-1.84,1.67-3.93,3.41-6.15,5.15c79.35,89.2,195,145.39,323.78,145.39C500.6,806.66,652.67,700.72,720,548.86z"/>
	<path fill="#FFFFFF" d="M605.64,484.02l6.7-0.5l-1.34-17.88l-6.8,0.51c-0.97-6.08-2.43-12.15-4.41-18.16l6.24-2.56l-6.79-16.59l-6.33,2.59
		c-2.86-5.64-6.14-10.95-9.78-15.93l5.14-4.35l-11.59-13.68l-5.21,4.41c-4.44-4.43-9.19-8.49-14.23-12.11l3.54-5.73l-15.25-9.43
		l-3.6,5.82c-5.56-2.83-11.34-5.2-17.28-7.11l1.6-6.57l-17.41-4.25l-1.62,6.64c-6.03-0.96-12.16-1.47-18.33-1.47
		c-0.1,0-0.2,0-0.31,0l-0.5-6.7l-17.42,1.3c-5.9-11.29-14.48-27.5-16.21-31.09c-0.46-0.94-1.5-1.58-2.49-1.42
		c-3.48,0.58-4.71-1.37-6.05-4.19c-1.53-3.21-19.63-37.79-20.15-39.57c-0.55-1.92-1.46-3.5-3.51-4.21c-2.3-0.81-1.8-2.91,0.16-5.06
		c2.84-3.12,6.4-5.45,24.27,0.77v0c6.46,1.79,12.41-0.94,11.49-2.92c-2.71-6.92-10.41-10.58-9.57-19.03
		c0.36-7.65-10.14-6.4-12.56-12.74c-0.98-2.7-8.53-6.22-12.21-7c-6.54-2.84-10.51,4.25-16.19,0
		c-54.54-39.37-63.79-36.98-64.04-38.08c0-18.15-3.19-32.81-6.05-38.89c-0.64-6.58-4.5-12.55-4.85-19.01
		c1.46-10.46,3.75-21.18,0-31.54c-1.1-5.08-3.62-4.31-0.56-8.58c4.4-5.87,5.35-5.9,10.06-6.49c2.29-0.29,4.61-0.23,6.9,0.01
		c1.99,0.21,3.84,0.37,5.07,0.29c6.47-0.44,8.94-3.35,8.41-9.86c-0.11-1.41,0.04-2.53,1.11-3.61c3.3-3.34,3.35-3.48,0.76-6.86
		c0.16-0.16,0.34-0.31,0.55-0.44c2.09-0.27,4.53,0.18,4.87-3.13c0.49-4.8,3.66-4.12,4.35-4.16c3.93-0.24,5.5-2.78,4.25-6.58
		c-0.74-2.24-2.04-4.28-2.95-6.47c-1.26-3.04-4.01-7.11-1.02-10.56c6.78,0,21.48,1.61,15.42-4.31
		c-17.96-17.9-33.57-40.05-61.75-37.34c-5.37-1.04-36.19,7.34-33.63,14.26c1.89,2.7,0.28,4.07-1.5,5.52
		c-3.25,2.53-8.46,4.28-5.71,9.28c2.37,5.03,4.71,10.08,7.16,15.07c1.14,2.46,4.81,2.64,4.22,5.86c-1.18,6.94,2.4,14.14-3.16,19.56
		c-1.03,1.68-8.78,5.46-10.58,3.88c-16.74-7.27-22.97-12.69-39.77-6.28c-2.37,0.92-13.34,2.94-11.94-1.32
		c-1.37-4.03-8.02-3.53-9.69,0.37c-0.71,1.3-1.26,2.66-2.96,3.14c-16.99,5.19-38.73,9.33-44.52,28.72
		c-4.24,12.16-16.53,11.63-19.05,26.12c-11.14,29.57-25.03,20.53-19.36,60.36c1.69,18.36-5.29,16.92,12.47,29.85
		c5.45,3,20.37,9.72,20.37,9.72c-20.91,17.28-28.24,59.62,2.86,66.32l-13.03-1.67c-5.13,0-9.32,4.2-9.32,9.32
		c0,3.6,2.07,6.74,5.08,8.29c16.31,10.7,26.56,10.01,29.85,9.52c5.5-0.82,12.86,5.53,19.04,5.48l16.72,37.45l-2.33,1.14
		c-3.13,1.53-4.43,5.31-2.9,8.44c1.1,2.24,3.34,3.54,5.67,3.54c0.93,0,1.88-0.21,2.77-0.64l0.01,0L239.63,403
		c-3.27,3.58-13.72,15.09-15.68,17.26l-11.63-6.68l-3.41,5.94c-5.62-2.64-11.45-4.87-17.48-6.6l1.38-6.57l-17.54-3.69l-1.41,6.69
		c-4.73-0.59-9.52-0.92-14.38-0.92c-1.42,0-2.85,0.04-4.28,0.09l-0.72-6.71l-17.82,1.92l0.73,6.8c-6.21,1.18-12.23,2.85-18.02,4.96
		l-2.75-6.14l-16.36,7.33l2.79,6.22c-5.49,3.03-10.7,6.49-15.59,10.32l-4.52-4.99l-13.29,12.03l4.59,5.07
		c-4.26,4.55-8.16,9.44-11.64,14.61l-5.85-3.36l-8.93,15.55l5.92,3.4c-2.64,5.62-4.84,11.47-6.57,17.5l-6.58-1.38l-3.69,17.54
		l6.67,1.4c-0.76,6.11-1.04,12.35-0.81,18.67l-6.71,0.72l1.92,17.82l6.82-0.73c1.18,6.21,2.84,12.23,4.94,18.02l-6.14,2.75
		l7.33,16.36l6.24-2.8c3.03,5.49,6.46,10.71,10.29,15.6l-4.99,4.52l12.03,13.29l5.09-4.61c4.55,4.26,9.42,8.18,14.59,11.66
		l-3.36,5.85l15.55,8.93l3.41-5.94c5.62,2.64,11.45,4.87,17.48,6.6l-1.38,6.57l17.54,3.69l1.41-6.7c4.73,0.59,9.52,0.92,14.38,0.92
		c1.42,0,2.85-0.04,4.28-0.09l0.72,6.71l17.82-1.92l-0.73-6.8c6.21-1.18,12.23-2.85,18.02-4.96l2.75,6.14l16.36-7.33l-2.79-6.22
		c5.49-3.03,10.7-6.49,15.59-10.32l4.52,4.99l13.29-12.03l-4.59-5.07c4.26-4.55,8.16-9.44,11.64-14.61l5.85,3.36l8.93-15.55
		l-5.92-3.4c1.79-3.8,3.36-7.72,4.73-11.73c0.73-0.24,1.47-0.48,2.2-0.72c11.34-3.81,22.93-6.87,33.97-11.56
		c5.1-2.17,9.48-5.56,12.58-9.93c4.61-6.49,7.02-13.98,5.78-22.13c-0.46-3.03,0.58-4.01,3.46-4.16c4.42-0.23,8.68-1.13,12.42-3.68
		c2.8-1.9,3.93-5.5,2.46-8.55c-1.72-3.58-5.17-4.28-8.35-5.4c-2.29-0.81-2.99-1.66-1.66-4.1c5.49-10.09,10.77-20.3,16.14-30.46
		c6.17-11.67,12.37-23.33,18.53-35c6.67-12.63,41.91-80.7,49.65-89.38c2.26-2.53,5.36-2.63,7.72-0.21c2.52,2.59,4.71,5.68,8.76,6.13
		c1.15,0.13,1.84,1.05,2.46,1.97c1.42,2.08,7.07,12,12.72,22.1l-15.1,6.18l2.59,6.33c-5.64,2.86-10.96,6.14-15.93,9.77l-4.35-5.13
		l-13.68,11.59l4.4,5.2c-4.44,4.44-8.48,9.2-12.11,14.24l-5.73-3.54l-9.43,15.25l5.82,3.6c-2.83,5.56-5.21,11.34-7.12,17.27
		l-6.56-1.6l-4.25,17.41l6.63,1.62c-0.98,6.13-1.46,12.36-1.45,18.64l-6.7,0.5l1.34,17.88l6.8-0.51c0.97,6.08,2.43,12.15,4.41,18.16
		l-6.24,2.56l6.79,16.59l6.33-2.59c2.86,5.64,6.14,10.95,9.78,15.93l-5.14,4.35l11.59,13.68l5.21-4.41
		c4.44,4.43,9.19,8.49,14.23,12.11l-3.54,5.73l15.25,9.43l3.6-5.82c5.56,2.83,11.34,5.2,17.28,7.11l-1.6,6.57l17.41,4.25l1.62-6.64
		c6.03,0.96,12.16,1.47,18.33,1.47c0.1,0,0.2,0,0.31,0l0.5,6.7l17.88-1.34l-0.51-6.8c6.08-0.97,12.15-2.42,18.16-4.4l2.56,6.24
		l16.59-6.79l-2.59-6.33c5.64-2.86,10.96-6.14,15.93-9.77l4.35,5.13l13.68-11.59l-4.4-5.2c4.44-4.44,8.48-9.2,12.11-14.24l5.73,3.54
		l9.43-15.25l-5.82-3.6c2.83-5.56,5.21-11.34,7.12-17.27l6.56,1.6l4.25-17.41l-6.63-1.62C605.17,496.53,605.66,490.29,605.64,484.02
		z M255.92,351.8c3.35,2.47,8.32-2.31,8.35-2.55c0.1,0.02,17.37,5.57,17.37,5.57s-33.63,15.33-34.44,15.5l-3.67-7.88
		c3.06-1.56,4.32-5.29,2.8-8.39c-1.53-3.13-5.31-4.43-8.44-2.9l-0.67,0.33l-12.5-27.99C236.01,333.27,253.87,350.29,255.92,351.8z
		 M242.91,410.04l16.36,35.13c-1.21,2.01-3.06,3.53-3.06,3.53l-12.03-13.29l-5.09,4.61c-3.99-3.74-8.24-7.19-12.71-10.34
		C226.39,429.68,237.68,416.34,242.91,410.04z M270.68,420.73l-14.22-30.52c0.49-0.68,27.64-15.3,26.95-14.34
		C276.9,384.9,273.52,406.45,270.68,420.73z M215.56,448.92c2.36,1.75,4.66,3.6,6.87,5.58c11.5,10.27,20.18,23.06,25.52,37.25
		l-70.77,20.47c-0.69-0.96-1.45-1.86-2.29-2.69L215.56,448.92z M159.48,430.41c16.55,0,32.67,4.38,46.87,12.52l-40.95,61.02
		c-0.94-0.27-1.9-0.46-2.88-0.61l-7.83-72.81C156.29,430.45,157.89,430.41,159.48,430.41z M143.77,431.72l7.83,72.8
		c-0.93,0.35-1.83,0.74-2.69,1.2l-52.95-50.89C108.99,443.04,125.38,434.77,143.77,431.72z M88.24,462.64l52.59,50.54
		c-0.64,0.99-1.19,2.03-1.66,3.11l-73.53-4.97C68.34,493,76.37,476.16,88.24,462.64z M78.84,574.98
		c-7.41-11.95-12.12-25.49-13.66-39.75c-0.47-4.36-0.61-8.68-0.48-12.95l72.72,4.91c0.01,0.09,0.01,0.18,0.02,0.27
		c0.15,1.42,0.45,2.79,0.85,4.1L78.84,574.98z M96.24,595.73c-4.06-3.62-7.75-7.57-11.08-11.77l58.89-43
		c1.28,1.23,2.7,2.29,4.24,3.18l-17.58,71.24C118.09,611.37,106.33,604.73,96.24,595.73z M169.46,619.26
		c-3.41,0.37-6.86,0.55-10.26,0.55c-6.03,0-12-0.59-17.84-1.72l17.52-70.98c0.93,0.02,1.87,0,2.82-0.1c0.95-0.1,1.87-0.28,2.78-0.5
		l32.2,65.63C188.21,615.77,179.08,618.23,169.46,619.26z M206.48,607.2l-32.31-65.85c1.31-1.2,2.48-2.53,3.47-4.01l66.65,29.48
		C236,583.63,222.85,597.77,206.48,607.2z M248.59,556.73l-67.31-29.78c0.11-1.37,0.11-2.77-0.04-4.19
		c-0.01-0.09-0.03-0.18-0.04-0.27l70.03-20.26c1.04,4.17,1.8,8.44,2.26,12.76C255.05,529.57,253.21,543.75,248.59,556.73z
		 M368.83,388.01c-0.52,1-0.88,2.54-2.25,2.42c-2.98-0.25-2.78-3.9-1.26-4.48c3.19-1.22,4.87-4.75,3.03-7.67
		c-0.84-1.33-1.59-2.89-2.79-3.8c-2.35-1.79-1.66-3.54-0.35-5.33c1.15-1.57,1.24-2.87-0.43-4.03c-1.74-1.22-3.53-1.15-4.36,0.88
		c-1.35,3.28-3.69,3.28-6.67,3.06c-5.6-0.4-6.49,0.52-7.21,6.21c-0.15,1.2-0.96,1.27-1.77,1.29c-6.47,0.15-9.69,4.04-12.26,9.55
		c-3.87,8.3-19.03,36.06-22.1,41.94c-2.49,4.78-1.49,7.35,3.3,9.86c5.22,2.74,10.24,5.84,15.7,8.13c3.89,1.64,5.25,1.36,7.77-2.11
		c0.33-0.46,0.59-1.21,1.29-0.89c0.89,0.41,0.43,1.18,0.1,1.7c-4.14,6.43-20.55,38.32-21.8,41.16c-0.58,1.31-1.61,1.87-3.17,0.85
		c-6.44-4.21-11.99-9.5-15.81-16.02c-2.63-4.48-4.48-2.54-2.99-8.02c0.74-2.74,0.56-4.79-1.3-7.78c-1.39-2.24,2.73-7.39,4.21-10.37
		c10.35-20.87,28.84-59.62,37.26-83.23c2.05-5.74,3.64-7.26,7.78-11.71c3.4-3.65,54.43-25.18,57.68-24.79
		C406.06,325.51,373.31,379.41,368.83,388.01z M403.4,300.6c-2.97,1.27-51.69,22.94-55.49,24.61c-1.47,0.65-2.45,0.46-2.93-1.38
		c-1.51-5.77-5.11-10.25-9.48-14.06c-13.27-10.98-16.91-19.71-31.18-28.84c-26.67-20.52-46.71-54.88-45.89-55.31
		c14.75-7.82,34.6-46.46,40.53-53.21c4.38,7.02,12.75,49.47,30.13,59.84c7.67,0.87,20.59,7.07,39.86,15.13
		c8.13,2.88,18.63,5.66,26.38,9.6c6.5,2.89-11.9,14.06,5.05,28.66c3.87,3.33-0.68,5.73,4.15,10.21
		C406.56,298.49,406.36,299.33,403.4,300.6z M541.13,405.33c9.21,6.07,17.19,13.63,23.69,22.34l-62.32,39.35
		c-0.93-0.73-1.91-1.38-2.95-1.95l22.23-69.53C528.54,398.04,535.03,401.31,541.13,405.33z M448.05,398.98l27.75,67.76
		c-0.79,0.59-1.55,1.22-2.25,1.9l-65.06-34.2C417.97,419.09,431.59,406.84,448.05,398.98z M401.62,447.78
		c0.52-1.24,1.08-2.47,1.65-3.68l64.6,33.96c-0.34,1.13-0.58,2.28-0.73,3.46l-72.03,15.67
		C392.81,480.59,394.98,463.63,401.62,447.78z M425.47,554.66c-10.47-9.44-18.71-21.14-24.14-34.41c-1.65-4.04-3-8.15-4.08-12.3
		l71.24-15.49c0.03,0.09,0.06,0.17,0.09,0.26c0.54,1.32,1.2,2.55,1.96,3.71L425.47,554.66z M436.79,563.41
		c-0.93-0.61-1.84-1.24-2.74-1.88l44.63-57.69c1.57,0.83,3.23,1.44,4.95,1.87l2.91,73.33C468.84,578.59,451.68,573.21,436.79,563.41
		z M488.9,462.35c-0.98,0-1.96,0.08-2.94,0.22l-27.57-67.31l2.52-1.31c9.09-2.84,18.47-4.3,28-4.3c7.59,0,15.09,0.92,22.37,2.69
		L488.9,462.35z M524.85,572c-8.83,3.61-17.99,5.85-27.32,6.7l-2.9-73.06c0.9-0.24,1.8-0.52,2.68-0.88
		c0.88-0.36,1.72-0.79,2.53-1.25l49.17,54.09C541.89,563.43,533.8,568.33,524.85,572z M557.06,550.12l-49.34-54.28
		c0.92-1.51,1.68-3.12,2.21-4.81l72.22,9.8C578.87,519.28,570.17,536.51,557.06,550.12z M583.48,489.93l-72.94-9.9
		c-0.27-1.35-0.66-2.69-1.2-4.01c-0.03-0.09-0.08-0.16-0.12-0.25l61.64-38.92c2.15,3.72,4.07,7.6,5.72,11.63
		C582.15,462.05,584.31,476.19,583.48,489.93z"/>
</g>
</svg>
